<?xml version="1.0" encoding="UTF-8"?>
<svg xmlns="http://www.w3.org/2000/svg" xmlns:xlink="http://www.w3.org/1999/xlink" width="47px" height="40px" viewBox="0 0 46 40" version="1.1">
<defs>
<clipPath id="clip1">
  <path d="M 23.359375 0.015625 L 46 0.015625 L 46 40 L 23.359375 40 Z M 23.359375 0.015625 "/>
</clipPath>
<clipPath id="clip2">
  <path d="M 2 25 L 12 25 L 12 39.960938 L 2 39.960938 Z M 2 25 "/>
</clipPath>
<clipPath id="clip3">
  <path d="M 0.015625 0.0664062 L 14.011719 0.0664062 L 14.011719 15 L 0.015625 15 Z M 0.015625 0.0664062 "/>
</clipPath>
<clipPath id="clip4">
  <path d="M 0.015625 15 L 14.011719 15 L 14.011719 25 L 0.015625 25 Z M 0.015625 15 "/>
</clipPath>
</defs>
<g id="surface1">
<g clip-path="url(#clip1)" clip-rule="nonzero">
<path style=" stroke:none;fill-rule:nonzero;fill:rgb(100%,100%,100%);fill-opacity:1;" d="M 36.46875 0 C 32.308594 0 29.085938 0.933594 26.804688 2.796875 C 24.507812 4.660156 23.359375 7.273438 23.359375 10.640625 C 23.359375 12.742188 23.777344 14.484375 24.609375 15.867188 C 25.441406 17.25 26.46875 18.34375 27.695312 19.152344 C 28.90625 19.96875 30.523438 20.886719 32.546875 21.910156 C 35.28125 23.230469 37.332031 24.523438 38.699219 25.785156 C 40.066406 27.050781 40.75 28.914062 40.75 31.375 C 40.75 33.660156 40.09375 35.507812 38.789062 36.914062 C 37.480469 38.332031 35.726562 39.039062 33.527344 39.039062 C 31.089844 39.039062 29.117188 38.03125 27.605469 36.011719 C 26.082031 34.003906 25.027344 30.894531 24.429688 26.6875 L 23.359375 26.6875 L 23.808594 38.410156 C 25.054688 38.890625 26.570312 39.28125 28.355469 39.582031 C 30.136719 39.882812 31.742188 40.03125 33.167969 40.03125 C 37.09375 40.03125 40.214844 38.960938 42.53125 36.824219 C 44.851562 34.695312 46.011719 31.796875 46.011719 28.132812 C 46.011719 25.90625 45.582031 24.074219 44.726562 22.632812 C 43.859375 21.1875 42.816406 20.058594 41.605469 19.242188 C 40.378906 18.433594 38.726562 17.550781 36.648438 16.589844 C 33.972656 15.328125 31.980469 14.109375 30.671875 12.929688 C 29.363281 11.761719 28.710938 10.039062 28.710938 7.753906 C 28.710938 5.710938 29.304688 4.070312 30.496094 2.832031 C 31.683594 1.605469 33.257812 0.992188 35.21875 0.992188 C 37.359375 0.992188 39.074219 1.804688 40.355469 3.425781 C 41.628906 5.050781 42.679688 7.664062 43.511719 11.269531 L 44.496094 11.269531 L 44.496094 1.261719 C 43.542969 0.902344 42.324219 0.601562 40.839844 0.359375 C 39.351562 0.121094 37.894531 0 36.46875 0 Z M 36.46875 0 "/>
</g>
<g clip-path="url(#clip2)" clip-rule="nonzero">
<path style=" stroke:none;fill-rule:nonzero;fill:rgb(68.235294%,68.235294%,68.235294%);fill-opacity:1;" d="M 7.015625 25.390625 C 4.320312 25.390625 2.132812 27.601562 2.132812 30.324219 C 2.132812 30.382812 2.132812 30.445312 2.136719 30.503906 C 2.15625 31.023438 2.25 31.519531 2.417969 31.988281 C 3.457031 35.449219 7.015625 39.964844 7.015625 39.964844 C 7.015625 39.964844 10.570312 35.449219 11.613281 31.988281 C 11.777344 31.519531 11.875 31.023438 11.894531 30.503906 C 11.894531 30.445312 11.898438 30.382812 11.898438 30.324219 C 11.898438 27.601562 9.710938 25.390625 7.015625 25.390625 Z M 9.734375 28.648438 C 9.726562 28.9375 9.671875 29.214844 9.578125 29.476562 C 9 31.40625 7.015625 33.925781 7.015625 33.925781 C 7.015625 33.925781 5.03125 31.40625 4.449219 29.476562 C 4.359375 29.214844 4.304688 28.9375 4.292969 28.648438 C 4.292969 28.617188 4.292969 28.582031 4.292969 28.550781 C 4.292969 27.027344 5.511719 25.796875 7.015625 25.796875 C 8.519531 25.796875 9.738281 27.027344 9.738281 28.550781 C 9.738281 28.582031 9.738281 28.617188 9.734375 28.648438 Z M 9.734375 28.648438 "/>
</g>
<g clip-path="url(#clip3)" clip-rule="nonzero">
<path style=" stroke:none;fill-rule:nonzero;fill:rgb(68.235294%,68.235294%,68.235294%);fill-opacity:1;" d="M 14.015625 14.707031 L 14.015625 12.21875 C 14.015625 11.109375 13.746094 9.335938 13.417969 8.277344 C 13.417969 8.277344 10.878906 0.0664062 7.015625 0.0664062 C 3.148438 0.0664062 0.613281 8.277344 0.613281 8.277344 C 0.285156 9.335938 0.015625 11.109375 0.015625 12.21875 L 0.015625 14.707031 Z M 14.015625 14.707031 "/>
</g>
<g clip-path="url(#clip4)" clip-rule="nonzero">
<path style=" stroke:none;fill-rule:nonzero;fill:rgb(68.235294%,68.235294%,68.235294%);fill-opacity:1;" d="M 0.015625 15.417969 L 0.015625 22.425781 C 0.015625 23.535156 0.914062 24.445312 2.011719 24.445312 L 12.019531 24.445312 C 13.117188 24.445312 14.015625 23.535156 14.015625 22.425781 L 14.015625 15.417969 Z M 0.015625 15.417969 "/>
</g>
</g>
</svg>
