<svg width="26" height="37" viewBox="0 0 26 37" fill="none" xmlns="http://www.w3.org/2000/svg">
<rect x="11.1738" y="8.21875" width="12" height="3.25581" transform="rotate(25 11.1738 8.21875)" fill="#AFB1B3"/>
<path d="M21.7562 13.9196C19.5043 18.7489 19.0304 13.4089 16.0271 12.0085C13.0239 10.6081 8.62858 13.6775 10.8805 8.84822C13.1325 4.01892 17.3926 1.23928 20.3959 2.63971C23.3991 4.04015 24.0081 9.09034 21.7562 13.9196Z" fill="#AFB1B3"/>
<path d="M9.46387 11.8862L20.3396 16.9576L17.8039 22.3955C17.337 23.3966 16.1471 23.8297 15.146 23.3629L7.89554 19.9819C6.89446 19.5151 6.46135 18.3252 6.92816 17.3241L9.46387 11.8862Z" fill="#AFB1B3"/>
<path fill-rule="evenodd" clip-rule="evenodd" d="M5.99987 34.1384C8.75885 32.5936 12.1745 30.681 13.1972 28.4879C14.2694 26.1885 13.3532 23.492 11.1508 22.465C8.94846 21.438 6.29389 22.4695 5.22168 24.7688C4.19901 26.962 4.92945 30.8079 5.51945 33.9144C5.54803 34.0648 5.57627 34.2136 5.60398 34.3603C5.73417 34.2872 5.86625 34.2132 5.99987 34.1384ZM8.01494 29.475C9.35447 28.5896 11.0128 27.4934 11.5583 26.3237C12.1301 25.0974 11.7821 23.7248 10.781 23.258C9.77997 22.7912 8.50486 23.4069 7.93302 24.6332C7.38759 25.8029 7.61383 27.7779 7.79657 29.3732C7.80542 29.4504 7.81417 29.5268 7.82272 29.6022C7.88594 29.5603 7.95007 29.5179 8.01494 29.475Z" fill="#AFB1B3"/>
</svg>
