<svg width="26" height="37" viewBox="0 0 26 37" fill="none" xmlns="http://www.w3.org/2000/svg">
<rect x="11.0078" y="8.11475" width="12" height="3.25581" transform="rotate(25 11.0078 8.11475)" fill="#808080"/>
<path d="M21.5902 13.8156C19.3383 18.6449 18.8643 13.3049 15.8611 11.9045C12.8579 10.5041 8.46256 13.5735 10.7145 8.74421C12.9664 3.91492 17.2266 1.13528 20.2298 2.53571C23.2331 3.93614 23.8421 8.98634 21.5902 13.8156Z" fill="#808080"/>
<path d="M9.29785 11.7822L20.1735 16.8536L17.6378 22.2915C17.171 23.2926 15.9811 23.7257 14.98 23.2589L7.72952 19.8779C6.72844 19.4111 6.29533 18.2212 6.76214 17.2201L9.29785 11.7822Z" fill="#808080"/>
<path fill-rule="evenodd" clip-rule="evenodd" d="M5.83385 34.0344C8.59283 32.4896 12.0085 30.577 13.0312 28.3839C14.1034 26.0845 13.1872 23.388 10.9848 22.361C8.78245 21.334 6.12787 22.3655 5.05567 24.6648C4.03299 26.858 4.76343 30.7039 5.35344 33.8104C5.38201 33.9608 5.41026 34.1096 5.43796 34.2563C5.56815 34.1832 5.70023 34.1092 5.83385 34.0344ZM7.84893 29.371C9.18845 28.4856 10.8468 27.3894 11.3922 26.2197C11.9641 24.9934 11.6161 23.6208 10.615 23.154C9.61395 22.6872 8.33885 23.3029 7.767 24.5292C7.22158 25.6989 7.44781 27.6739 7.63055 29.2692C7.6394 29.3464 7.64815 29.4228 7.65671 29.4982C7.71992 29.4563 7.78405 29.4139 7.84893 29.371Z" fill="#808080"/>
</svg>
